<?xml version="1.0" encoding="utf-8"?>
<!-- Generator: Adobe Illustrator 25.0.0, SVG Export Plug-In . SVG Version: 6.00 Build 0)  -->
<svg version="1.1" id="Layer_1" xmlns="http://www.w3.org/2000/svg" xmlns:xlink="http://www.w3.org/1999/xlink" x="0px" y="0px"
	 viewBox="0 0 300 91" style="enable-background:new 0 0 300 91;" xml:space="preserve">
<style type="text/css">
	.st0{fill:#A9A3A1;}
	.st1{fill:#101006;}
	.st2{fill-rule:evenodd;clip-rule:evenodd;fill:#CE0E2D;}
	.st3{fill:#FFFFFF;}
</style>
<path class="st0" d="M278.8,0H21.2h-2.4c-0.7,0-1.4,0-2,0c-1.5,0-3,0.1-4.5,0.4S9.4,1.2,8,1.9C6.7,2.5,5.5,3.4,4.4,4.5
	c-1,1.1-1.9,2.3-2.6,3.6c-0.7,1.4-1.1,2.8-1.4,4.3s-0.3,3-0.4,4.5c0,0.7,0,1.4,0,2.1v2.5v48.2V72c0,0.7,0,1.4,0,2.1
	c0,1.5,0.1,3,0.4,4.5s0.7,2.9,1.4,4.3c0.7,1.3,1.6,2.6,2.6,3.6c1.1,1.1,2.3,2,3.6,2.7c1.4,0.7,2.7,1.1,4.2,1.4s3,0.4,4.5,0.4
	c0.7,0,1.4,0,2,0c0.8,0,1.6,0,2.4,0h257.7c0.8,0,1.6,0,2.4,0c0.7,0,1.4,0,2,0c1.5,0,3-0.1,4.4-0.4c1.5-0.3,2.9-0.7,4.2-1.4
	c1.3-0.7,2.5-1.6,3.6-2.7s1.9-2.3,2.6-3.6c0.7-1.4,1.1-2.8,1.4-4.3s0.4-3,0.4-4.5V72c0-0.8,0-1.6,0-2.5V21.4c0-0.8,0-1.6,0-2.5v-2.1
	c-0.1-1.5-0.1-3-0.4-4.5S298.7,9.4,298,8c-0.7-1.3-1.6-2.6-2.6-3.6c-1.1-1.1-2.3-2-3.6-2.6c-1.4-0.7-2.8-1.1-4.2-1.4
	c-1.5-0.3-3-0.4-4.4-0.4c-0.7,0-1.4,0-2,0C281.2,0,278.8,0,278.8,0z"/>
<path class="st1" d="M18.8,89c-0.7,0-1.3,0-2,0c-1.2,0-2.7-0.1-4.1-0.4s-2.6-0.7-3.7-1.2c-1.2-0.6-2.2-1.4-3.1-2.3s-1.7-2-2.3-3.1
	s-1-2.3-1.2-3.7c-0.3-1.5-0.3-3-0.4-4.2c0-0.5,0-2,0-2v-53c0,0,0-1.6,0-2c0-1.2,0.1-2.7,0.4-4.2c0.2-1.4,0.6-2.6,1.2-3.7
	C4.1,8,4.9,6.9,5.8,6s2-1.7,3.1-2.3s2.3-1,3.7-1.2c1.5-0.3,3-0.3,4.2-0.4h2h262.5h2c1.1,0,2.7,0.1,4.1,0.4c1.3,0.2,2.5,0.6,3.7,1.2
	c1.1,0.6,2.2,1.4,3.1,2.3s1.7,2,2.3,3.2c0.6,1.1,1,2.4,1.2,3.7c0.3,1.4,0.3,2.9,0.4,4.2c0,0.6,0,1.3,0,2c0,0.8,0,1.6,0,2.4v48.1
	c0,0.8,0,1.6,0,2.4c0,0.7,0,1.4,0,2.1c0,1.3-0.1,2.8-0.4,4.2c-0.2,1.4-0.6,2.6-1.2,3.7c-0.6,1.2-1.4,2.2-2.3,3.1s-2,1.7-3.1,2.3
	c-1.2,0.6-2.3,1-3.7,1.2c-1.4,0.3-2.9,0.3-4.2,0.4c-0.7,0-1.3,0-2,0h-2.4C278.8,89,18.8,89,18.8,89z"/>
<path class="st2" d="M60.8,16.9h-25C24,16.9,19.7,21.2,19.7,33v25c0,11.8,4.3,16.1,16.1,16.1h25c11.8,0,16.1-4.3,16.1-16.1V33
	C76.9,21.2,72.6,16.9,60.8,16.9"/>
<path class="st3" d="M31,45.5h1.5V53H31v-3h-3.4v3H26v-7.5h1.5v3H31V45.5z M39.5,49.8c0,1.2-0.6,1.9-1.7,1.9c-1.1,0-1.7-0.7-1.7-1.9
	v-4.2h-1.5v4.3c0,2.1,1.2,3.3,3.2,3.3S41,52,41,49.8v-4.2h-1.5V49.8z M57.1,50.6l-1.7-5.1h-1.2l-1.7,5.1l-1.7-5.1h-1.6l2.6,7.5h1.3
	l1.7-4.9l1.7,4.9h1.3l2.6-7.5h-1.6L57.1,50.6z M63.1,49.8h2.8v-1.4h-2.8v-1.5h4v-1.4h-5.5V53h5.6v-1.4h-4.1
	C63.1,51.6,63.1,49.8,63.1,49.8z M69,53h1.5v-7.5H69V53z M44.1,51.4L43.4,53h-1.6l3.3-7.5h1.3l3.3,7.5h-1.6l-0.7-1.6H44.1z
	 M44.6,50.1h2.3l-1.2-2.7L44.6,50.1z"/>
<path class="st3" d="M48.3,36c-5.2,0-9.5-4.3-9.5-9.5h1.3c0,4.5,3.7,8.2,8.2,8.2s8.2-3.7,8.2-8.2h1.3C57.8,31.7,53.5,36,48.3,36"/>
<g>
	<path class="st3" d="M110.9,37h-9.7l-2.3,6.4h-5.1l9.9-25.4h5l10.1,25.4h-5.5L110.9,37z M102.5,33.1h6.9l-2.4-6.7
		c-0.4-0.9-0.7-2-1-3.2c-0.3,1-0.6,2.1-1,3.2L102.5,33.1z"/>
	<path class="st3" d="M121.1,29.2c0-1.4,0-3-0.1-4.7h4.8c0.2,0.7,0.3,1.5,0.3,2.5c0.7-0.9,1.6-1.6,2.5-2.1c0.9-0.5,2-0.8,3.2-0.8
		c1.3,0,2.4,0.3,3.5,1c1.1,0.6,1.9,1.6,2.6,3c0.7,1.4,1,3.1,1,5.2c0,2.3-0.4,4.2-1.2,5.8s-1.9,2.8-3.3,3.6c-1.4,0.8-3,1.2-4.8,1.2
		c-1.1,0-2.3-0.2-3.5-0.6V51l-5.1,0.4L121.1,29.2L121.1,29.2z M132.6,38.5c0.8-1.1,1.2-2.7,1.2-4.9c0-1.9-0.3-3.3-1-4.2
		c-0.7-0.9-1.5-1.3-2.6-1.3c-0.7,0-1.4,0.2-2.1,0.5c-0.6,0.4-1.3,0.9-1.9,1.5v9.5c0.4,0.2,0.8,0.3,1.3,0.4s1,0.2,1.6,0.2
		C130.6,40.2,131.7,39.6,132.6,38.5z"/>
	<path class="st3" d="M142.6,29.2c0-1.4,0-3-0.1-4.7h4.8c0.2,0.7,0.3,1.5,0.3,2.5c0.7-0.9,1.6-1.6,2.5-2.1s2-0.8,3.2-0.8
		c1.3,0,2.4,0.3,3.5,1c1.1,0.6,1.9,1.6,2.6,3c0.7,1.4,1,3.1,1,5.2c0,2.3-0.4,4.2-1.2,5.8s-1.9,2.8-3.3,3.6c-1.4,0.8-3,1.2-4.8,1.2
		c-1.1,0-2.3-0.2-3.5-0.6V51l-5.1,0.4V29.2H142.6z M154,38.5c0.8-1.1,1.2-2.7,1.2-4.9c0-1.9-0.3-3.3-1-4.2c-0.7-0.9-1.5-1.3-2.6-1.3
		c-0.7,0-1.4,0.2-2.1,0.5c-0.6,0.4-1.3,0.9-1.9,1.5v9.5c0.4,0.2,0.8,0.3,1.3,0.4s1,0.2,1.6,0.2C152,40.2,153.2,39.6,154,38.5z"/>
	<path class="st3" d="M169.2,42.3c-1.9-1-3.4-2.5-4.4-4.4s-1.6-4.2-1.6-6.9c0-2.9,0.6-5.3,1.8-7.3s2.8-3.5,4.8-4.5s4.3-1.5,6.8-1.5
		c2.8,0,5.4,0.6,7.9,1.8l-1.2,3.8c-2.3-1.1-4.4-1.6-6.5-1.6c-1.7,0-3.2,0.4-4.4,1.1c-1.3,0.7-2.2,1.8-2.9,3.1c-0.7,1.4-1,3.1-1,5
		c0,1.7,0.3,3.3,0.8,4.6s1.4,2.4,2.5,3.2s2.6,1.2,4.3,1.2c1.5,0,3-0.2,4.4-0.7v-4.7H175v-3.8h10.5v11c-1.5,0.7-3,1.2-4.6,1.6
		c-1.6,0.4-3.2,0.5-4.8,0.5C173.4,43.8,171.1,43.3,169.2,42.3z"/>
	<path class="st3" d="M201,43.5c-0.2-0.8-0.3-1.6-0.3-2.4c-0.7,0.8-1.5,1.4-2.5,2c-1,0.5-2.2,0.8-3.5,0.8c-1.1,0-2.1-0.2-3-0.6
		s-1.6-1.1-2.2-2s-0.8-2-0.8-3.2c0-4,2.9-6,8.7-6c1.1,0,2.2,0.1,3.3,0.2V32c0-1.5-0.3-2.5-1-3.2c-0.7-0.6-1.6-0.9-2.9-0.9
		c-0.9,0-1.9,0.1-3,0.4s-2,0.6-2.8,1l-0.7-3.6c0.8-0.4,1.9-0.7,3.2-1s2.7-0.4,4.1-0.4c2.6,0,4.6,0.6,6.1,1.9
		c1.4,1.2,2.1,3.3,2.1,6.3v7.6c0,0.8,0,2,0.1,3.6H201V43.5z M198.6,39.6c0.8-0.4,1.5-0.8,2-1.4V35c-1.1-0.1-2-0.2-2.6-0.2
		c-1.6,0-2.7,0.3-3.3,0.8s-0.9,1.2-0.9,2.1c0,0.8,0.2,1.4,0.7,1.9s1.1,0.6,1.8,0.6C197.1,40.1,197.8,39.9,198.6,39.6z"/>
	<path class="st3" d="M211.3,42.6c-0.8-0.8-1.2-2.1-1.2-3.9V16.6l5-0.4v21.6c0,0.8,0.1,1.3,0.4,1.6c0.3,0.3,0.7,0.5,1.3,0.5
		c0.4,0,0.8-0.1,1.2-0.2l0.6,3.5c-0.5,0.2-1,0.4-1.7,0.5s-1.4,0.2-2,0.2C213.3,43.8,212.1,43.4,211.3,42.6z"/>
	<path class="st3" d="M222.1,42.6c-0.8-0.8-1.2-2.1-1.2-3.9V16.6l5-0.4v21.6c0,0.8,0.1,1.3,0.4,1.6c0.3,0.3,0.7,0.5,1.3,0.5
		c0.4,0,0.8-0.1,1.2-0.2l0.6,3.5c-0.5,0.2-1,0.4-1.7,0.5s-1.4,0.2-2,0.2C224.1,43.8,222.9,43.4,222.1,42.6z"/>
	<path class="st3" d="M248,34.8h-12.2c0.2,1.8,0.7,3.1,1.6,4s2.1,1.2,3.7,1.2c0.9,0,1.8-0.1,2.7-0.3s1.9-0.5,2.7-0.9l1.1,3.4
		c-2.2,1.1-4.7,1.6-7.4,1.6c-3.1,0-5.5-0.8-7.1-2.5s-2.4-4-2.4-7.1c0-2.1,0.4-3.9,1.1-5.4c0.8-1.5,1.8-2.7,3.2-3.5s2.9-1.2,4.7-1.2
		c1.9,0,3.4,0.4,4.7,1.3s2.2,2,2.8,3.5s0.9,3.1,0.9,4.8v1.1H248z M243.2,31.8c-0.1-1.4-0.4-2.4-1-3.1s-1.4-1-2.5-1
		c-1,0-1.8,0.3-2.5,1s-1.1,1.7-1.3,3.1H243.2z"/>
	<path class="st3" d="M251.6,29.2c0-1.1,0-2.6-0.1-4.7h4.8c0.1,0.5,0.1,1.1,0.2,1.9c0.1,0.7,0.1,1.3,0.1,1.8c0.5-0.8,1-1.5,1.5-2.1
		s1-1,1.7-1.4c0.6-0.4,1.4-0.5,2.2-0.5c0.6,0,1.2,0.1,1.7,0.2l-0.6,4.3c-0.4-0.1-0.9-0.2-1.4-0.2c-1,0-1.9,0.2-2.6,0.7
		s-1.5,1.3-2.4,2.4v11.9h-5V29.2H251.6z"/>
	<path class="st3" d="M265.8,51.2c-0.7-0.1-1.2-0.2-1.7-0.4l0.9-3.6c0.2,0.1,0.6,0.1,1.1,0.2c0.5,0.1,0.9,0.1,1.3,0.1
		c0.9,0,1.8-0.3,2.5-0.8c0.7-0.6,1.2-1.4,1.7-2.4l0.2-0.6l-6.9-19.3h5.4l3.2,10.2c0.5,1.7,0.8,3,1,4.1c0.3-1.5,0.7-2.8,1.1-4.1
		l3.3-10.3h5l-6.8,19c-0.7,1.9-1.4,3.4-2.2,4.5c-0.8,1.1-1.8,2-2.9,2.5s-2.4,0.8-4,0.8C267.2,51.4,266.5,51.3,265.8,51.2z"/>
</g>
<g>
	<path class="st3" d="M95.7,61.5c-0.2-0.1-0.4-0.3-0.5-0.5S95,60.5,95,60.3c0-0.4,0.1-0.8,0.4-1.1s0.6-0.4,1.1-0.4
		c0.3,0,0.5,0.1,0.8,0.2c0.2,0.1,0.4,0.3,0.5,0.5S98,60,98,60.3s-0.1,0.5-0.2,0.8c-0.1,0.2-0.3,0.4-0.6,0.5
		c-0.2,0.1-0.5,0.2-0.8,0.2C96.2,61.7,95.9,61.7,95.7,61.5z M95.1,63h2.7v10.1h-2.7V63z"/>
	<path class="st3" d="M101,72.6c-0.4-0.4-0.6-1.1-0.6-2.1V58.8l2.7-0.2v11.5c0,0.4,0.1,0.7,0.2,0.9c0.2,0.2,0.4,0.2,0.7,0.2
		c0.2,0,0.4,0,0.7-0.1L105,73c-0.2,0.1-0.6,0.2-0.9,0.3c-0.4,0.1-0.7,0.1-1.1,0.1C102.1,73.3,101.4,73.1,101,72.6z"/>
	<path class="st3" d="M114.9,68.5h-6.5c0.1,1,0.4,1.7,0.8,2.1s1.1,0.7,2,0.7c0.5,0,1-0.1,1.5-0.2s1-0.3,1.4-0.5l0.6,1.8
		c-1.2,0.6-2.5,0.8-3.9,0.8c-1.7,0-2.9-0.4-3.8-1.3s-1.3-2.1-1.3-3.8c0-1.1,0.2-2.1,0.6-2.9s1-1.4,1.7-1.9c0.7-0.4,1.6-0.6,2.5-0.6
		c1,0,1.8,0.2,2.5,0.7s1.2,1.1,1.5,1.8c0.3,0.8,0.5,1.6,0.5,2.6L114.9,68.5L114.9,68.5z M112.3,66.9c0-0.7-0.2-1.3-0.5-1.6
		s-0.8-0.5-1.3-0.5s-1,0.2-1.3,0.5c-0.3,0.4-0.6,0.9-0.7,1.6H112.3z"/>
	<path class="st3" d="M123.2,59.6h2.7v6.6l0.2-0.3c0.1-0.2,0.3-0.3,0.4-0.5c0.2-0.2,0.3-0.5,0.5-0.7l3.7-5h3l-4.5,5.9l4.9,7.6h-3
		l-3.6-5.7l-1.6,1.7v4h-2.7V59.6z"/>
	<path class="st3" d="M135.8,59.6h8.1l-0.2,2.2h-5.2v3.3h4.9v2h-4.9v3.7h5.5l-0.2,2.2h-8L135.8,59.6L135.8,59.6z"/>
	<path class="st3" d="M153.5,72c-0.7,0.7-1.7,1.1-2.9,1.3l-0.2,0.4c0.6,0.1,1.1,0.3,1.4,0.6c0.3,0.3,0.5,0.7,0.5,1.2
		c0,0.6-0.2,1-0.6,1.4c-0.4,0.3-1.1,0.5-1.9,0.5c-0.8,0-1.6-0.2-2.2-0.5l0.4-1.2c0.6,0.3,1.1,0.4,1.6,0.4c0.3,0,0.5-0.1,0.7-0.2
		s0.3-0.3,0.3-0.5s-0.1-0.3-0.2-0.4c-0.2-0.1-0.4-0.2-0.7-0.3s-0.7-0.1-1.1-0.2l0.5-1.3c-0.6,0-1.3-0.1-1.9-0.3
		c-0.6-0.2-1.2-0.4-1.6-0.6l0.8-2.1c0.5,0.3,1.1,0.5,1.7,0.6c0.6,0.2,1.2,0.2,1.7,0.2c0.7,0,1.2-0.1,1.6-0.4
		c0.4-0.3,0.5-0.7,0.5-1.2c0-0.4-0.1-0.7-0.4-1c-0.2-0.3-0.5-0.5-0.9-0.7s-0.9-0.5-1.6-0.8c-0.7-0.3-1.3-0.6-1.8-1s-0.8-0.7-1.1-1.2
		s-0.4-1-0.4-1.7c0-0.8,0.2-1.5,0.6-2.1c0.4-0.6,0.9-1,1.6-1.3c0.7-0.3,1.5-0.5,2.4-0.5c0.7,0,1.3,0.1,2,0.2
		c0.7,0.2,1.3,0.3,1.7,0.6l-0.5,2.2c-1.1-0.5-2.2-0.8-3.2-0.8c-0.6,0-1.1,0.1-1.4,0.3c-0.4,0.2-0.5,0.6-0.5,1c0,0.3,0.1,0.6,0.3,0.8
		s0.5,0.4,0.8,0.6c0.4,0.2,1,0.5,1.8,0.8c0.7,0.3,1.3,0.7,1.8,1s0.8,0.8,1.1,1.2s0.4,1,0.4,1.7C154.6,70.3,154.2,71.3,153.5,72z"/>
	<path class="st3" d="M156.9,59.6h8.1l-0.2,2.2h-5.2v3.4h4.8v2h-4.8v5.9h-2.7L156.9,59.6L156.9,59.6z"/>
	<path class="st3" d="M166.9,59.6h8.1l-0.2,2.2h-5.2v3.3h4.9v2h-4.9v3.7h5.5l-0.2,2.2h-8L166.9,59.6L166.9,59.6z"/>
	<path class="st3" d="M177.5,59.6h4.7c1.5,0,2.7,0.2,3.7,0.7s1.8,1.2,2.4,2.1s0.8,2.1,0.8,3.4c0,1.4-0.3,2.6-0.9,3.7
		s-1.4,1.9-2.5,2.6c-1.1,0.6-2.4,0.9-3.8,0.9h-4.4V59.6z M181.8,71c1,0,1.8-0.2,2.5-0.6s1.2-1,1.5-1.8s0.5-1.6,0.5-2.6
		c0-1.4-0.4-2.5-1.1-3.2s-1.8-1.1-3.2-1.1h-1.8V71H181.8z"/>
	<path class="st3" d="M192,58.4c-0.2-0.1-0.4-0.3-0.5-0.5s-0.2-0.5-0.2-0.8c0-0.4,0.1-0.8,0.4-1.1c0.3-0.3,0.6-0.4,1.1-0.4
		c0.3,0,0.5,0.1,0.8,0.2c0.2,0.1,0.4,0.3,0.5,0.5s0.2,0.5,0.2,0.8s-0.1,0.5-0.2,0.8c-0.1,0.2-0.3,0.4-0.6,0.5
		c-0.2,0.1-0.5,0.2-0.8,0.2C192.5,58.6,192.2,58.5,192,58.4z M191.5,59.6h2.7v13.5h-2.7V59.6z"/>
	<path class="st3" d="M197.3,59.6h3.1l6.2,10c-0.1-1.1-0.1-2-0.1-2.7v-7.3h2.5v13.5h-3l-6.3-10.2c0.1,1.2,0.1,2.2,0.1,3.2v7h-2.5
		V59.6z"/>
</g>
</svg>
