<svg id="livetype" xmlns="http://www.w3.org/2000/svg" viewBox="0 0 142 43"><defs><style>.cls-2{fill:#fff}</style></defs><path d="M133.06 0h-126a9.91 9.91 0 00-1.88.21 5.72 5.72 0 00-1.79.67 6.31 6.31 0 00-1.52 1.27 6.94 6.94 0 00-1.1 1.74 7.92 7.92 0 00-.59 2.05A17.15 17.15 0 000 8.09v26.84a17.15 17.15 0 00.17 2.15 8 8 0 00.59 2 6.71 6.71 0 001.1 1.73 6.31 6.31 0 001.52 1.27 6 6 0 001.79.68 11.86 11.86 0 001.89.24h127.88a11.86 11.86 0 001.88-.19 5.81 5.81 0 003.3-1.95 6.74 6.74 0 001.11-1.73 7.63 7.63 0 00.58-2 15.46 15.46 0 00.18-2.15V8.08a15.46 15.46 0 00-.18-2.15 7.53 7.53 0 00-.58-2.05 7 7 0 00-1.11-1.74 6.08 6.08 0 00-1.51-1.26 5.82 5.82 0 00-1.79-.67 9.91 9.91 0 00-1.88-.21h-.87z" fill="#b7b7b7"/><path d="M7.93 42.06h-.85a10.3 10.3 0 01-1.76-.18 5 5 0 01-1.55-.59 5 5 0 01-1.31-1.09 5.82 5.82 0 01-1-1.5A7 7 0 011 36.91a15.81 15.81 0 01-.16-2V8.08A15.54 15.54 0 011 6.1a6.84 6.84 0 01.5-1.78 6 6 0 011-1.51 5.52 5.52 0 011.32-1.1 4.91 4.91 0 011.55-.58A10.93 10.93 0 017.08 1h127.85a10.71 10.71 0 011.74.18 5 5 0 011.57.59 5.17 5.17 0 011.3 1.09 6 6 0 011 1.51 7.11 7.11 0 01.5 1.77 15.83 15.83 0 01.16 2v26.83a15.38 15.38 0 01-.16 2 6.65 6.65 0 01-.51 1.79 5.66 5.66 0 01-.95 1.49 5 5 0 01-2.88 1.69 10.1 10.1 0 01-1.75.18H7.93z"/><g id="_Group_" data-name="&lt;Group&gt;"><g id="_Group_2" data-name="&lt;Group&gt;"><path id="_Path_" data-name="&lt;Path&gt;" class="cls-2" d="M23.38 21.85A4.66 4.66 0 0125.59 18a4.77 4.77 0 00-3.74-2c-1.58-.17-3.11.94-3.91.94S15.88 16 14.55 16a5 5 0 00-4.2 2.56c-1.81 3.15-.46 7.76 1.28 10.31.87 1.24 1.89 2.63 3.22 2.58s1.79-.83 3.36-.83 2 .83 3.37.8 2.28-1.25 3.11-2.51A10.3 10.3 0 0026.12 26a4.49 4.49 0 01-2.74-4.15z"/><path id="_Path_2" data-name="&lt;Path&gt;" class="cls-2" d="M20.82 14.26a4.6 4.6 0 001-3.28 4.67 4.67 0 00-3 1.56 4.35 4.35 0 00-1.07 3.15 3.83 3.83 0 003.07-1.43z"/></g></g><path class="cls-2" d="M33.53 25.78a.52.52 0 01.52-.54.53.53 0 01.52.54.52.52 0 01-.52.53.51.51 0 01-.52-.53zm.08 6.65v-5.6h.87v5.6zm2.29-4.23h.81v.67h.06a1.27 1.27 0 011.23-.75 1.37 1.37 0 011.46 1.57v2.74h-.83V29.9c0-.68-.3-1-.91-1a1 1 0 00-1 1.07v2.47h-.82zm4.67 2.11c0-1.33.69-2.18 1.76-2.18a1.41 1.41 0 011.3.74h.06v-2.32h.83v5.88h-.8v-.67h-.06a1.49 1.49 0 01-1.33.74c-1.08 0-1.76-.85-1.76-2.19zm.87 0c0 .9.42 1.44 1.13 1.44s1.13-.55 1.13-1.43-.44-1.44-1.13-1.44-1.13.54-1.13 1.43zM45.78 27a.54.54 0 11.54.51.51.51 0 01-.54-.51zm.12 1.25h.84v4.23h-.84zm2.18-.05h.8v.65H49a1.15 1.15 0 011.14-.72 1.4 1.4 0 01.37 0V29a2.59 2.59 0 00-.47 0 1 1 0 00-1.07 1v2.5h-.84zm3.26-1.2a.54.54 0 11.54.51.51.51 0 01-.54-.51zm.12 1.25h.83v4.23h-.83zm2.18-.05h.8v.67h.06a1.27 1.27 0 011.26-.75 1.38 1.38 0 011.47 1.57v2.74h-.84V29.9c0-.68-.29-1-.91-1a1 1 0 00-1 1.07v2.47h-.83z" id="_Group_3" data-name="&lt;Group&gt;"/><path class="cls-2" d="M39.84 19.2H35.4l-1.07 3.15h-1.88l4.21-11.65h2l4.21 11.65H40.9zm-4-1.45h3.52l-1.74-5.12zm16.07.35c0 2.64-1.42 4.34-3.55 4.34A2.87 2.87 0 0145.69 21v4.21H43.9V13.85h1.69v1.42a3 3 0 012.71-1.51c2.19 0 3.61 1.71 3.61 4.34zm-1.8 0c0-1.72-.89-2.85-2.24-2.85s-2.23 1.16-2.23 2.85.9 2.9 2.23 2.9 2.24-1.16 2.24-2.9zm11.15 0c0 2.64-1.41 4.34-3.55 4.34A2.87 2.87 0 0155 21v4.21h-1.75V13.85h1.69v1.42a3 3 0 012.7-1.51c2.2 0 3.62 1.71 3.62 4.34zm-1.79 0c0-1.72-.89-2.85-2.25-2.85S55 16.41 55 18.1s.89 2.9 2.22 2.9 2.25-1.16 2.25-2.9zm7.97 1c.13 1.16 1.25 1.92 2.79 1.92s2.53-.76 2.53-1.8-.64-1.45-2.15-1.82L69.1 17c-2.1-.48-3.1-1.48-3.1-3.11 0-2 1.75-3.39 4.24-3.39s4.15 1.38 4.21 3.39h-1.8c-.1-1.16-1.07-1.86-2.47-1.86s-2.37.71-2.37 1.74c0 .83.62 1.31 2.12 1.68l1.28.32c2.39.56 3.39 1.52 3.39 3.23 0 2.18-1.74 3.55-4.5 3.55-2.59 0-4.33-1.34-4.44-3.45zm10.92-7.26v2H80v1.38h-1.64v4.69c0 .73.33 1.07 1 1.07h.57v1.37a4.67 4.67 0 01-1 .08c-1.72 0-2.39-.65-2.39-2.29v-4.91h-1.17v-1.38h1.24v-2zm2.55 6.26c0-2.67 1.58-4.35 4-4.35s4 1.68 4 4.35-1.56 4.36-4 4.36-4-1.68-4-4.36zm6.29 0c0-1.83-.84-2.91-2.26-2.91s-2.25 1.09-2.25 2.91.84 2.9 2.25 2.9 2.26-1.06 2.26-2.9zm3.21-4.25h1.67v1.45a2 2 0 012-1.54 2.82 2.82 0 01.6.07v1.63a2.41 2.41 0 00-.78-.1 1.75 1.75 0 00-1.82 1.95v5h-1.67zm12.39 6.01c-.23 1.54-1.74 2.6-3.66 2.6-2.47 0-4-1.66-4-4.32s1.54-4.39 3.93-4.39 3.83 1.61 3.83 4.19v.6h-6v.1a2.21 2.21 0 002.28 2.41 1.92 1.92 0 002-1.19zm-5.9-2.54h4.25a2 2 0 00-2.08-2.16 2.16 2.16 0 00-2.17 2.16zm7.17-2.32l1-4.26h1.7L105.56 15zm2.57 3.1c0-2.62 1.45-4.34 3.56-4.34a2.85 2.85 0 012.66 1.51V10.7h1.76v11.65H113v-1.44a2.91 2.91 0 01-2.71 1.53c-2.2 0-3.65-1.71-3.65-4.34zm1.79 0c0 1.75.89 2.86 2.24 2.86s2.24-1.13 2.24-2.86-.9-2.85-2.24-2.85-2.24 1.12-2.24 2.85zm7.75 1.84c0-1.49 1.14-2.39 3.16-2.51l2.33-.13v-.64c0-.95-.62-1.48-1.68-1.48a1.63 1.63 0 00-1.79 1.19h-1.63c.05-1.53 1.48-2.62 3.47-2.62s3.37 1.11 3.37 2.78v5.82h-1.68V21a3 3 0 01-2.73 1.5 2.58 2.58 0 01-2.82-2.56zm5.49-.77v-.66l-2.09.13c-1 .07-1.63.52-1.63 1.25s.61 1.23 1.55 1.23a2 2 0 002.17-1.95zm3.51-5.32h1.67v1.45a2.7 2.7 0 012.67-1.54c1.87 0 2.95 1.2 2.95 3.15v5.44h-1.75v-5.1c0-1.28-.59-2-1.82-2a2 2 0 00-2 2.2v4.89h-1.75z"/></svg>