<svg id="Layer_1" data-name="Layer 1" xmlns="http://www.w3.org/2000/svg" viewBox="0 0 142 43"><defs><linearGradient id="linear-gradient" x1="23.01" y1="35.5" x2="5.24" y2="17.73" gradientTransform="matrix(1 0 0 -1 0 45.11)" gradientUnits="userSpaceOnUse"><stop offset="0" stop-color="#4998d3"/><stop offset=".01" stop-color="#4a99d3"/><stop offset=".26" stop-color="#42baeb"/><stop offset=".51" stop-color="#41c7f2"/><stop offset=".76" stop-color="#56c9e9"/><stop offset="1" stop-color="#5bcae8"/></linearGradient><linearGradient id="linear-gradient-2" x1="35.59" y1="23.54" x2="10.14" y2="23.54" gradientTransform="matrix(1 0 0 -1 0 45.11)" gradientUnits="userSpaceOnUse"><stop offset="0" stop-color="#fee000"/><stop offset=".41" stop-color="#febd11"/><stop offset=".78" stop-color="#faa51a"/><stop offset="1" stop-color="#f99c1c"/></linearGradient><linearGradient id="linear-gradient-3" x1="26.12" y1="21.12" x2="2.1" y2="-2.9" gradientTransform="matrix(1 0 0 -1 0 45.11)" gradientUnits="userSpaceOnUse"><stop offset="0" stop-color="#ef4049"/><stop offset="1" stop-color="#c31e63"/></linearGradient><linearGradient id="linear-gradient-4" x1="7.62" y1="44.47" x2="18.35" y2="33.74" gradientTransform="matrix(1 0 0 -1 0 45.11)" gradientUnits="userSpaceOnUse"><stop offset="0" stop-color="#32a072"/><stop offset=".07" stop-color="#2da771"/><stop offset=".48" stop-color="#4bba71"/><stop offset=".8" stop-color="#5ebd6b"/><stop offset="1" stop-color="#66be69"/></linearGradient></defs><path d="M136.74 43.15H5.26A5.34 5.34 0 010 37.77V5.52A5.34 5.34 0 015.26.15h131.48A5.34 5.34 0 01142 5.52v32.25a5.34 5.34 0 01-5.26 5.38z" transform="translate(0 -.15)"/><path d="M136.74 1a4.47 4.47 0 014.42 4.51v32.26a4.48 4.48 0 01-4.42 4.52H5.26a4.48 4.48 0 01-4.42-4.52V5.52A4.47 4.47 0 015.26 1h131.48m0-.86H5.26A5.34 5.34 0 000 5.52v32.25a5.34 5.34 0 005.26 5.38h131.48a5.34 5.34 0 005.26-5.38V5.52a5.34 5.34 0 00-5.26-5.37z" transform="translate(0 -.15)" fill="#a7a6a6"/><path d="M68.08 13.93A3.94 3.94 0 1072 17.87a3.86 3.86 0 00-3.92-3.94zm0 6.32a2.27 2.27 0 01-2.21-2.38 2.22 2.22 0 114.42 0 2.27 2.27 0 01-2.21 2.38zm-8.56-6.32a3.94 3.94 0 103.92 3.94 3.87 3.87 0 00-3.92-3.94zm0 6.32a2.27 2.27 0 01-2.21-2.38 2.21 2.21 0 114.41 0 2.26 2.26 0 01-2.2 2.38zm-10.19-5.11v1.67h4a3.53 3.53 0 01-.9 2.1 4.06 4.06 0 01-3.07 1.22 4.45 4.45 0 010-8.89 4.21 4.21 0 013 1.2l1.17-1.18a5.74 5.74 0 00-4.16-1.69 6.12 6.12 0 100 12.23A5.38 5.38 0 0055 16.18a5.36 5.36 0 00-.08-1zM91 16.43a3.64 3.64 0 00-3.35-2.5A3.73 3.73 0 0084 17.87a3.9 3.9 0 007.14 2.19l-1.33-.9a2.23 2.23 0 01-1.93 1.09 2 2 0 01-1.89-1.19l5.23-2.18zm-5.33 1.32a2.15 2.15 0 012-2.3 1.51 1.51 0 011.45.83zm-4.25 3.81h1.71V10h-1.72zm-2.82-6.75h-.06a2.69 2.69 0 00-2.06-.88 3.94 3.94 0 000 7.87 2.66 2.66 0 002.06-.89h.06v.56c0 1.51-.8 2.32-2.09 2.32a2.16 2.16 0 01-2-1.41L73 23a3.73 3.73 0 003.46 2.33c2 0 3.72-1.2 3.72-4.1v-7.06h-1.59zm-2 5.44a2.26 2.26 0 01-2.18-2.37 2.27 2.27 0 012.18-2.4 2.21 2.21 0 012.09 2.4 2.2 2.2 0 01-2.07 2.37zM99 10h-4.07v11.56h1.71v-4.38H99A3.6 3.6 0 1099 10zm0 5.58h-2.36v-4h2.44a2 2 0 110 4zm10.6-1.66a3.23 3.23 0 00-3.06 1.77l1.53.64a1.61 1.61 0 011.56-.85 1.66 1.66 0 011.89 1.52v.12a3.77 3.77 0 00-1.79-.45c-1.64 0-3.31.91-3.31 2.61a2.65 2.65 0 002.85 2.54 2.42 2.42 0 002.19-1.13h.06v.89h1.65v-4.47c0-2.06-1.52-3.2-3.49-3.2zm-.2 6.34c-.57 0-1.35-.28-1.35-1 0-.9 1-1.24 1.82-1.24a3 3 0 011.57.39 2.09 2.09 0 01-1.96 1.84zm9.73-6.09l-2 5h-.06l-2-5h-1.85l3.06 7-1.74 3.9h1.79l4.71-10.91zm-15.46 7.4h1.72V10h-1.72z" transform="translate(0 -.15)" fill="#fff"/><path d="M11 8.37a2.09 2.09 0 00-.49 1.48v23.43a2.09 2.09 0 00.49 1.48l.07.08 13-13.12v-.31l-13-13.12z" transform="translate(0 -.15)" fill="url(#linear-gradient)"/><path d="M28.43 26.1l-4.34-4.38v-.31L28.43 17l.1.05L33.67 20c1.47.84 1.47 2.21 0 3.05L28.53 26z" transform="translate(0 -.15)" fill="url(#linear-gradient-2)"/><path d="M28.53 26l-4.44-4.48L11 34.76a1.7 1.7 0 002.18.07L28.53 26" transform="translate(0 -.15)" fill="url(#linear-gradient-3)"/><path d="M28.53 17.09L13.16 8.3a1.68 1.68 0 00-2.16.07l13.09 13.19z" transform="translate(0 -.15)" fill="url(#linear-gradient-4)"/><path d="M28.43 25.94l-15.27 8.73a1.75 1.75 0 01-2.11 0l-.07.07.07.08a1.74 1.74 0 002.11 0L28.53 26z" transform="translate(0 -.15)" style="isolation:isolate" opacity=".2" fill="#010101"/><path d="M11 34.61a2.12 2.12 0 01-.49-1.49v.16a2.09 2.09 0 00.49 1.48l.07-.07zm22.67-11.67l-5.24 3 .1.1 5.14-2.95a1.85 1.85 0 001.11-1.52 2 2 0 01-1.11 1.37z" transform="translate(0 -.15)" style="isolation:isolate" fill="#010101" opacity=".12"/><path d="M13.16 8.46l20.51 11.73a2 2 0 011.11 1.37A1.85 1.85 0 0033.67 20L13.16 8.3c-1.47-.84-2.67-.14-2.67 1.55V10c0-1.69 1.2-2.39 2.67-1.54z" transform="translate(0 -.15)" style="isolation:isolate" opacity=".25" fill="#fff"/><path d="M44 30.79h-.75v-2H44zm1.32 4.41v-6.44h2a3.3 3.3 0 012.36 5.55 3.2 3.2 0 01-2.36.89zm.82-.79h1.14a2.22 2.22 0 002.4-2.43 2.42 2.42 0 00-.68-1.79 2.4 2.4 0 00-1.76-.64h-1.1zm9.27-4.86h-2.92v2h2.63v.78h-2.63v2h2.92v.79h-3.74v-6.36h3.74zm1.17 5.65v-6.44h1l3.11 5v-5h.82v6.44h-.85l-3.26-5.26v5.25zm7.65 0l2.42-6.44h.93L70 35.2h-.91l-.62-1.75h-2.7l-.63 1.75zm1.82-2.52h2.13l-1.05-2.91zm4.78 2.52v-6.44h.82v5.65h2.77v.79zm4.49 0v-6.44h.82v6.44zm2.29 0v-6.44h1l3.11 5v-5h.82v6.44h-.86l-3.25-5.26v5.25z" stroke="#fff" stroke-miterlimit="10" stroke-width=".2" fill="#fff"/></svg>